<?xml version="1.0" encoding="utf-8"?>
<!-- Generator: Adobe Illustrator 22.0.0, SVG Export Plug-In . SVG Version: 6.00 Build 0)  -->
<svg version="1.1" id="Capa_1" xmlns="http://www.w3.org/2000/svg" xmlns:xlink="http://www.w3.org/1999/xlink" x="0px" y="0px"
	 viewBox="0 0 79.8 79.6" style="enable-background:new 0 0 79.8 79.6;" xml:space="preserve">
<style type="text/css">
	.st0{fill:#FFFFFF;}
</style>
<title>Instagram</title>
<path class="st0" d="M18.3,0C8.4,0,0.4,8,0.3,17.9v43.5c0,9.9,8,17.9,17.9,17.9h43.5c9.9,0,17.9-8,17.9-17.9V17.9
	C79.6,8,71.6,0,61.7,0H18.3z M40,59.1c-10.7,0-19.4-8.7-19.4-19.4S29.3,20.2,40,20.2s19.4,8.7,19.4,19.4c0,0,0,0,0,0
	C59.4,50.4,50.7,59.1,40,59.1z M64.3,21.3c-3,0-5.5-2.5-5.5-5.5s2.5-5.5,5.5-5.5c3,0,5.5,2.5,5.5,5.5c0,0,0,0,0,0
	C69.7,18.9,67.3,21.3,64.3,21.3C64.3,21.3,64.3,21.3,64.3,21.3z"/>
</svg>
