<?xml version="1.0" encoding="utf-8"?>
<!-- Generator: Adobe Illustrator 22.0.0, SVG Export Plug-In . SVG Version: 6.00 Build 0)  -->
<svg version="1.1" id="Capa_1" xmlns="http://www.w3.org/2000/svg" xmlns:xlink="http://www.w3.org/1999/xlink" x="0px" y="0px"
	 viewBox="0 0 100 83.5" style="enable-background:new 0 0 100 83.5;" xml:space="preserve">
<style type="text/css">
	.st0{fill:#FFFFFF;}
</style>
<path class="st0" d="M66.2,8.5c4.7,0,8.8,1.7,12.3,5.1c0.2,0.2,0.4,0.3,0.6,0.3c0.1,0,0.1,0,0.2,0c3.5-0.8,6.5-2,9.2-3.4
	c0.1-0.1,1.1-0.6,1.3-0.7c-1.4,4.1-3.9,7.2-7.5,9.5c1.7-0.2,3.3-0.5,4.9-0.9s3.2-1,4.9-1.7c-0.8,1.2-1.6,2.3-2.5,3.3
	c-1.7,2-3.7,3.8-5.8,5.4c-0.2,0.2-0.3,0.3-0.3,0.6c0,1,0,1.9,0,2.9c0,0,0,0,0,0.1l0,0C83.1,40.9,79,51.5,71.3,60.7
	C65,68,57.2,73,47.8,75.5c-2.9,0.8-5.9,1.3-8.8,1.6c-0.4,0-0.8,0-1.3,0c-0.6,0-1.1,0-1.7,0l0,0c-1.1,0-2.2,0-3.2,0
	c-0.7,0-1.4,0-2.2,0c-2.4,0-4.7-0.4-7-0.9C18,75,12.9,72.9,8,69.9c-0.1-0.1-0.2-0.2-0.3-0.3c1.3,0.1,2.5,0.2,3.8,0.2
	c3.2,0,6.5-0.4,9.6-1.3c4.4-1.2,8.4-3.2,12-6.1c-7.9-0.7-13.3-4.7-16.1-12c1,0.2,2.1,0.2,3.1,0.2c1.5,0,3.1-0.2,4.6-0.6
	c-4-0.9-7.3-3-9.9-6.2S11,36.9,11,32.7c2.4,1.3,5,2.1,7.7,2.1c-3.7-2.7-6.1-6.1-7.1-10.5s-0.3-8.6,1.9-12.6c0.3,0.3,0.5,0.5,0.7,0.8
	c7.3,8.5,16.4,13.9,27.4,16.3c2.4,0.5,4.7,0.8,7.1,1c0.1,0,0.2,0,0.3,0h0.1c0.2,0,0.2-0.1,0.2-0.4c-0.3-1.5-0.4-3.1-0.3-4.6
	c0.3-4.9,2.3-8.9,6-12.1c2.7-2.4,5.8-3.8,9.4-4.1C64.8,8.6,65.5,8.5,66.2,8.5 M92.1,16.7L92.1,16.7 M66.2,2.5L66.2,2.5
	c-0.9,0-1.7,0-2.6,0.1C58.8,3.1,54.5,5,50.8,8.2c-4.5,4-7.2,8.9-7.9,14.8c-0.1,0-0.1,0-0.2,0C33,20.9,25.1,16.2,18.6,8.6l-0.4-0.5
	L18,7.8c-1.1-1.3-2.8-2.1-4.6-2.1c-0.2,0-0.4,0-0.6,0c-2,0.2-3.7,1.3-4.6,3c-3,5.3-3.8,11-2.5,16.8c0.2,1,0.5,2,0.9,3
	c-1,1.1-1.6,2.6-1.6,4.1c0,5.6,1.7,10.6,5.2,14.8c0.4,0.5,0.7,0.9,1.1,1.3c-0.3,1.2-0.2,2.4,0.2,3.6c1.7,4.3,4.1,7.8,7.2,10.4
	c-2.3,0.6-4.7,0.9-7.1,0.9c-1,0-2.1-0.1-3.2-0.2c-0.2,0-0.4,0-0.6,0c-2.2,0-4.3,1.2-5.3,3.3c-1.1,2.2-0.8,4.8,0.8,6.7
	c0.5,0.6,1,1,1.7,1.4c5.5,3.4,11.3,5.8,17.5,7.1c2.5,0.5,5.3,1,8.2,1.1c0.7,0,1.5,0,2.2,0h1.9h1.3l0,0c0.3,0,0.5,0,0.8,0s0.6,0,1,0
	c0.7,0,1.2,0,1.8-0.1c3.4-0.3,6.7-0.9,9.9-1.8c10.4-2.6,19.3-8.3,26.2-16.6c8.5-10,13.1-21.7,13.6-34.8c0.1-0.4,0.1-0.8,0-1.2
	c1.7-1.4,3.2-3,4.7-4.6c1.1-1.3,2-2.5,2.9-3.8c0.7-1,1.1-2.2,1.1-3.4c0-2.1-1-3.9-2.6-5c0.8-2.4,0.1-5-1.9-6.5
	c-1.1-0.9-2.5-1.4-3.8-1.4c-1,0-2,0.3-2.9,0.8l-0.2,0.1c-0.3,0.2-0.8,0.4-1,0.5c-1.8,0.9-3.5,1.7-5.3,2.2
	C76.3,4.2,71.5,2.5,66.2,2.5L66.2,2.5z"/>
</svg>
